<?xml version="1.0" encoding="UTF-8"?>
<svg xmlns="http://www.w3.org/2000/svg" xmlns:xlink="http://www.w3.org/1999/xlink" width="32px" height="32px" viewBox="0 0 32 32" version="1.1">
<g id="surface1">
<path style=" stroke:none;fill-rule:nonzero;fill:rgb(99.607843%,99.607843%,99.607843%);fill-opacity:1;" d="M 0 0 C 10.558594 0 21.121094 0 32 0 C 32 10.558594 32 21.121094 32 32 C 21.441406 32 10.878906 32 0 32 C 0 21.441406 0 10.878906 0 0 Z M 0 0 "/>
<path style=" stroke:none;fill-rule:nonzero;fill:rgb(99.607843%,99.607843%,99.607843%);fill-opacity:1;" d="M 17.742188 6 C 17.789062 6.007812 17.789062 6.007812 17.835938 6.011719 C 19.964844 6.316406 22.15625 7.3125 23.726562 8.789062 C 23.785156 8.84375 23.84375 8.894531 23.902344 8.945312 C 24.046875 9.074219 24.1875 9.210938 24.324219 9.347656 C 24.371094 9.390625 24.414062 9.4375 24.460938 9.480469 C 24.644531 9.664062 24.808594 9.855469 24.972656 10.058594 C 24.996094 10.085938 25.019531 10.117188 25.046875 10.144531 C 25.652344 10.851562 26.125 11.65625 26.542969 12.484375 C 26.554688 12.507812 26.5625 12.527344 26.574219 12.550781 C 27.179688 13.753906 27.546875 15.113281 27.65625 16.457031 C 27.660156 16.503906 27.660156 16.503906 27.664062 16.550781 C 27.691406 16.886719 27.691406 17.226562 27.691406 17.566406 C 27.691406 17.613281 27.691406 17.613281 27.691406 17.660156 C 27.691406 18.320312 27.65625 18.953125 27.53125 19.601562 C 27.511719 19.6875 27.5 19.777344 27.484375 19.867188 C 27.40625 20.3125 27.285156 20.738281 27.144531 21.171875 C 27.132812 21.203125 27.125 21.230469 27.113281 21.265625 C 26.734375 22.433594 26.175781 23.585938 25.410156 24.550781 C 25.371094 24.597656 25.335938 24.648438 25.300781 24.695312 C 24.953125 25.152344 24.566406 25.578125 24.164062 25.980469 C 24.144531 26 24.128906 26.019531 24.109375 26.039062 C 23.980469 26.164062 23.851562 26.285156 23.714844 26.398438 C 23.6875 26.425781 23.660156 26.449219 23.628906 26.472656 C 23.226562 26.824219 22.792969 27.140625 22.34375 27.429688 C 22.324219 27.441406 22.304688 27.453125 22.285156 27.464844 C 21.472656 27.980469 20.625 28.371094 19.714844 28.683594 C 19.640625 28.710938 19.566406 28.738281 19.488281 28.765625 C 18.925781 28.964844 18.332031 29.082031 17.742188 29.171875 C 17.714844 29.175781 17.6875 29.179688 17.660156 29.183594 C 17.203125 29.25 16.746094 29.277344 16.285156 29.285156 C 16.253906 29.285156 16.222656 29.285156 16.1875 29.289062 C 15.703125 29.296875 15.226562 29.273438 14.742188 29.230469 C 14.71875 29.226562 14.691406 29.222656 14.664062 29.222656 C 14.3125 29.191406 13.972656 29.132812 13.628906 29.058594 C 13.59375 29.050781 13.558594 29.042969 13.523438 29.035156 C 11.660156 28.621094 9.886719 27.785156 8.445312 26.523438 C 8.398438 26.484375 8.355469 26.449219 8.308594 26.414062 C 8.085938 26.226562 7.878906 26.027344 7.671875 25.820312 C 7.660156 25.808594 7.644531 25.792969 7.632812 25.78125 C 7.472656 25.621094 7.316406 25.457031 7.171875 25.285156 C 7.144531 25.257812 7.121094 25.226562 7.09375 25.199219 C 5.902344 23.804688 5 22.078125 4.601562 20.285156 C 4.59375 20.257812 4.585938 20.234375 4.582031 20.207031 C 4.523438 19.96875 4.480469 19.726562 4.441406 19.484375 C 4.433594 19.449219 4.429688 19.414062 4.421875 19.378906 C 4.328125 18.777344 4.300781 18.1875 4.304688 17.582031 C 4.304688 17.5625 4.304688 17.542969 4.304688 17.523438 C 4.304688 16.914062 4.324219 16.316406 4.429688 15.714844 C 4.433594 15.679688 4.441406 15.648438 4.445312 15.613281 C 4.480469 15.410156 4.523438 15.203125 4.570312 15 C 4.578125 14.964844 4.578125 14.964844 4.589844 14.925781 C 4.804688 13.96875 5.160156 13.074219 5.601562 12.199219 C 5.609375 12.175781 5.621094 12.15625 5.632812 12.132812 C 5.90625 11.589844 6.238281 11.085938 6.601562 10.601562 C 6.613281 10.582031 6.625 10.566406 6.636719 10.546875 C 6.824219 10.300781 7.023438 10.0625 7.230469 9.828125 C 7.246094 9.808594 7.265625 9.785156 7.285156 9.765625 C 7.441406 9.589844 7.601562 9.421875 7.769531 9.253906 C 7.8125 9.210938 7.851562 9.171875 7.894531 9.128906 C 8.050781 8.972656 8.210938 8.824219 8.382812 8.6875 C 8.449219 8.632812 8.511719 8.582031 8.574219 8.527344 C 9.753906 7.484375 11.289062 6.730469 12.800781 6.3125 C 12.820312 6.308594 12.84375 6.300781 12.863281 6.296875 C 13.191406 6.207031 13.515625 6.132812 13.847656 6.070312 C 13.890625 6.0625 13.933594 6.050781 13.976562 6.042969 C 15.199219 5.78125 16.515625 5.816406 17.742188 6 Z M 17.742188 6 "/>
<path style=" stroke:none;fill-rule:nonzero;fill:rgb(0%,0%,0%);fill-opacity:1;" d="M 17.972656 3.914062 C 17.992188 3.917969 18.007812 3.921875 18.027344 3.921875 C 18.277344 3.960938 18.523438 4.007812 18.769531 4.058594 C 18.800781 4.0625 18.828125 4.070312 18.859375 4.074219 C 19.183594 4.144531 19.503906 4.222656 19.820312 4.324219 C 19.871094 4.339844 19.921875 4.351562 19.96875 4.367188 C 21.363281 4.792969 22.691406 5.421875 23.886719 6.257812 C 23.917969 6.277344 23.917969 6.277344 23.949219 6.300781 C 24.34375 6.578125 24.726562 6.875 25.082031 7.199219 C 25.136719 7.253906 25.195312 7.300781 25.253906 7.351562 C 25.402344 7.480469 25.539062 7.621094 25.675781 7.761719 C 25.765625 7.851562 25.855469 7.941406 25.949219 8.035156 C 26.128906 8.210938 26.300781 8.386719 26.457031 8.585938 C 26.511719 8.652344 26.566406 8.71875 26.625 8.78125 C 26.769531 8.941406 26.898438 9.113281 27.027344 9.285156 C 27.042969 9.304688 27.058594 9.324219 27.070312 9.34375 C 27.484375 9.894531 27.839844 10.480469 28.171875 11.085938 C 28.191406 11.121094 28.191406 11.121094 28.210938 11.160156 C 28.535156 11.742188 28.796875 12.355469 29.007812 12.988281 C 29.027344 13.058594 29.054688 13.125 29.078125 13.191406 C 29.363281 13.972656 29.542969 14.785156 29.664062 15.605469 C 29.667969 15.632812 29.671875 15.660156 29.675781 15.691406 C 29.765625 16.335938 29.78125 16.988281 29.78125 17.636719 C 29.78125 17.675781 29.78125 17.714844 29.78125 17.753906 C 29.78125 18.542969 29.722656 19.308594 29.570312 20.085938 C 29.5625 20.132812 29.554688 20.183594 29.542969 20.230469 C 29.515625 20.375 29.488281 20.515625 29.457031 20.65625 C 29.453125 20.679688 29.445312 20.707031 29.441406 20.730469 C 29.351562 21.140625 29.226562 21.539062 29.089844 21.9375 C 29.078125 21.972656 29.078125 21.972656 29.0625 22.007812 C 28.890625 22.519531 28.699219 23.019531 28.460938 23.5 C 28.441406 23.539062 28.425781 23.574219 28.410156 23.609375 C 28.117188 24.203125 27.804688 24.769531 27.429688 25.3125 C 27.417969 25.332031 27.40625 25.347656 27.390625 25.367188 C 26.917969 26.054688 26.394531 26.703125 25.800781 27.285156 C 25.722656 27.363281 25.644531 27.441406 25.566406 27.519531 C 25.390625 27.699219 25.214844 27.871094 25.015625 28.027344 C 24.902344 28.117188 24.792969 28.214844 24.6875 28.3125 C 24.726562 28.425781 24.777344 28.515625 24.84375 28.613281 C 24.867188 28.640625 24.886719 28.671875 24.90625 28.699219 C 24.949219 28.761719 24.992188 28.824219 25.03125 28.882812 C 25.214844 29.152344 25.300781 29.363281 25.300781 29.6875 C 25.300781 29.714844 25.300781 29.742188 25.300781 29.769531 C 25.289062 30.195312 25.117188 30.613281 24.808594 30.910156 C 24.65625 31.039062 24.496094 31.125 24.3125 31.199219 C 24.277344 31.214844 24.277344 31.214844 24.242188 31.230469 C 23.871094 31.355469 23.382812 31.328125 23.027344 31.171875 C 22.746094 31.015625 22.546875 30.8125 22.34375 30.570312 C 22.308594 30.53125 22.273438 30.492188 22.238281 30.453125 C 22.183594 30.390625 22.132812 30.332031 22.085938 30.269531 C 22.066406 30.246094 22.046875 30.222656 22.023438 30.199219 C 22.007812 30.175781 21.988281 30.152344 21.972656 30.132812 C 21.953125 30.117188 21.933594 30.101562 21.914062 30.085938 C 21.816406 30.097656 21.730469 30.128906 21.640625 30.167969 C 21.617188 30.179688 21.589844 30.191406 21.566406 30.203125 C 21.539062 30.214844 21.511719 30.226562 21.484375 30.242188 C 20.917969 30.492188 20.332031 30.691406 19.738281 30.863281 C 19.679688 30.878906 19.625 30.894531 19.566406 30.914062 C 19.292969 30.996094 19.019531 31.050781 18.738281 31.105469 C 18.691406 31.113281 18.648438 31.121094 18.601562 31.128906 C 18.476562 31.152344 18.351562 31.175781 18.230469 31.199219 C 18.199219 31.207031 18.167969 31.210938 18.132812 31.21875 C 17.910156 31.257812 17.683594 31.289062 17.457031 31.3125 C 17.425781 31.316406 17.425781 31.316406 17.390625 31.320312 C 16.9375 31.371094 16.484375 31.382812 16.027344 31.382812 C 15.992188 31.382812 15.957031 31.382812 15.917969 31.382812 C 15.300781 31.382812 14.695312 31.351562 14.085938 31.257812 C 14.050781 31.25 14.011719 31.246094 13.976562 31.242188 C 13.1875 31.117188 12.414062 30.933594 11.65625 30.679688 C 11.636719 30.671875 11.617188 30.667969 11.59375 30.660156 C 11.261719 30.546875 10.9375 30.425781 10.613281 30.289062 C 10.539062 30.253906 10.460938 30.222656 10.382812 30.191406 C 10.253906 30.136719 10.128906 30.082031 10 30.027344 C 9.988281 30.054688 9.988281 30.054688 9.976562 30.078125 C 9.941406 30.144531 9.902344 30.191406 9.851562 30.246094 C 9.832031 30.265625 9.8125 30.285156 9.796875 30.304688 C 9.777344 30.324219 9.757812 30.34375 9.738281 30.363281 C 9.699219 30.402344 9.664062 30.441406 9.625 30.480469 C 9.605469 30.5 9.589844 30.519531 9.570312 30.539062 C 9.515625 30.597656 9.464844 30.660156 9.410156 30.71875 C 9.191406 30.972656 8.921875 31.152344 8.601562 31.257812 C 8.570312 31.269531 8.570312 31.269531 8.535156 31.277344 C 8.136719 31.386719 7.742188 31.304688 7.378906 31.121094 C 6.992188 30.894531 6.734375 30.554688 6.613281 30.121094 C 6.5 29.585938 6.6875 29.132812 6.972656 28.6875 C 7.03125 28.601562 7.09375 28.519531 7.15625 28.4375 C 7.203125 28.367188 7.21875 28.3125 7.230469 28.230469 C 7.210938 28.214844 7.191406 28.199219 7.171875 28.183594 C 6.871094 27.941406 6.585938 27.675781 6.3125 27.398438 C 6.230469 27.316406 6.148438 27.234375 6.066406 27.152344 C 5.847656 26.941406 5.644531 26.726562 5.457031 26.484375 C 5.410156 26.429688 5.367188 26.378906 5.320312 26.324219 C 4.734375 25.621094 4.238281 24.847656 3.808594 24.042969 C 3.777344 23.980469 3.746094 23.921875 3.710938 23.863281 C 3.511719 23.503906 3.359375 23.121094 3.199219 22.742188 C 3.191406 22.71875 3.179688 22.695312 3.167969 22.671875 C 2.898438 22.023438 2.695312 21.339844 2.542969 20.65625 C 2.535156 20.621094 2.535156 20.621094 2.527344 20.585938 C 2.457031 20.269531 2.40625 19.949219 2.355469 19.628906 C 2.347656 19.59375 2.339844 19.554688 2.335938 19.519531 C 2.316406 19.402344 2.300781 19.285156 2.285156 19.171875 C 2.28125 19.152344 2.28125 19.132812 2.277344 19.109375 C 2.214844 18.644531 2.21875 18.179688 2.21875 17.710938 C 2.21875 17.671875 2.21875 17.628906 2.21875 17.589844 C 2.222656 16.980469 2.230469 16.375 2.3125 15.769531 C 2.316406 15.75 2.320312 15.730469 2.324219 15.710938 C 2.554688 14.023438 3.09375 12.382812 3.933594 10.898438 C 3.96875 10.835938 4.003906 10.769531 4.039062 10.703125 C 4.480469 9.902344 5.039062 9.144531 5.652344 8.46875 C 5.707031 8.40625 5.761719 8.34375 5.816406 8.28125 C 5.902344 8.183594 5.996094 8.089844 6.089844 7.996094 C 6.148438 7.9375 6.148438 7.9375 6.214844 7.855469 C 6.289062 7.769531 6.363281 7.699219 6.449219 7.628906 C 6.519531 7.566406 6.585938 7.5 6.652344 7.433594 C 6.773438 7.308594 6.898438 7.199219 7.035156 7.09375 C 7.097656 7.042969 7.160156 6.988281 7.222656 6.933594 C 8.585938 5.734375 10.347656 4.84375 12.085938 4.34375 C 12.109375 4.335938 12.136719 4.328125 12.164062 4.320312 C 12.777344 4.144531 13.394531 4.003906 14.027344 3.914062 C 14.082031 3.90625 14.082031 3.90625 14.136719 3.898438 C 15.394531 3.714844 16.714844 3.726562 17.972656 3.914062 Z M 13.601562 6.113281 C 13.578125 6.121094 13.554688 6.125 13.527344 6.128906 C 11.796875 6.511719 10.160156 7.265625 8.769531 8.371094 C 8.746094 8.390625 8.722656 8.410156 8.695312 8.429688 C 8.550781 8.546875 8.410156 8.664062 8.273438 8.789062 C 8.234375 8.824219 8.195312 8.863281 8.152344 8.898438 C 7.984375 9.039062 7.832031 9.191406 7.675781 9.347656 C 7.628906 9.390625 7.585938 9.4375 7.539062 9.480469 C 7.355469 9.664062 7.191406 9.855469 7.027344 10.058594 C 7.003906 10.085938 6.980469 10.117188 6.953125 10.144531 C 6.347656 10.851562 5.875 11.65625 5.457031 12.484375 C 5.441406 12.519531 5.441406 12.519531 5.421875 12.554688 C 4.824219 13.738281 4.484375 15.054688 4.34375 16.371094 C 4.339844 16.394531 4.339844 16.417969 4.335938 16.4375 C 4.3125 16.648438 4.308594 16.859375 4.308594 17.070312 C 4.308594 17.105469 4.308594 17.140625 4.308594 17.179688 C 4.308594 17.253906 4.308594 17.332031 4.308594 17.410156 C 4.308594 17.523438 4.304688 17.636719 4.304688 17.75 C 4.300781 18.484375 4.371094 19.195312 4.515625 19.914062 C 4.519531 19.945312 4.519531 19.945312 4.527344 19.980469 C 4.605469 20.386719 4.730469 20.777344 4.855469 21.171875 C 4.867188 21.203125 4.878906 21.234375 4.886719 21.265625 C 5.265625 22.433594 5.828125 23.585938 6.589844 24.550781 C 6.628906 24.597656 6.664062 24.648438 6.699219 24.695312 C 7.167969 25.316406 7.707031 25.949219 8.324219 26.425781 C 8.390625 26.480469 8.457031 26.535156 8.519531 26.59375 C 8.652344 26.710938 8.789062 26.820312 8.933594 26.925781 C 8.96875 26.953125 8.96875 26.953125 9.007812 26.980469 C 10.40625 28.015625 12.011719 28.722656 13.714844 29.085938 C 13.738281 29.089844 13.761719 29.09375 13.785156 29.101562 C 14.601562 29.273438 15.453125 29.296875 16.285156 29.285156 C 16.332031 29.285156 16.332031 29.285156 16.382812 29.285156 C 17.945312 29.261719 19.464844 28.859375 20.886719 28.230469 C 20.910156 28.21875 20.933594 28.207031 20.957031 28.195312 C 21.535156 27.9375 22.082031 27.621094 22.601562 27.257812 C 22.617188 27.246094 22.636719 27.230469 22.652344 27.21875 C 23.285156 26.78125 23.867188 26.277344 24.410156 25.734375 C 24.429688 25.71875 24.449219 25.699219 24.46875 25.679688 C 24.59375 25.554688 24.710938 25.421875 24.828125 25.285156 C 24.855469 25.257812 24.878906 25.226562 24.90625 25.199219 C 25.832031 24.113281 26.546875 22.855469 27.027344 21.515625 C 27.039062 21.484375 27.050781 21.449219 27.0625 21.417969 C 27.367188 20.558594 27.589844 19.652344 27.65625 18.742188 C 27.660156 18.710938 27.660156 18.679688 27.664062 18.648438 C 27.6875 18.304688 27.691406 17.960938 27.691406 17.617188 C 27.691406 17.585938 27.691406 17.554688 27.691406 17.523438 C 27.691406 15.644531 27.242188 13.882812 26.398438 12.199219 C 26.390625 12.179688 26.378906 12.15625 26.367188 12.132812 C 26.003906 11.40625 25.535156 10.734375 25.015625 10.109375 C 24.972656 10.0625 24.933594 10.011719 24.890625 9.960938 C 24.683594 9.707031 24.453125 9.476562 24.226562 9.246094 C 24.203125 9.222656 24.203125 9.222656 24.175781 9.199219 C 23.996094 9.015625 23.8125 8.84375 23.613281 8.6875 C 23.550781 8.632812 23.488281 8.582031 23.425781 8.527344 C 22.25 7.488281 20.730469 6.746094 19.230469 6.332031 C 19.171875 6.316406 19.117188 6.296875 19.058594 6.28125 C 17.335938 5.757812 15.351562 5.714844 13.601562 6.113281 Z M 13.601562 6.113281 "/>
<path style=" stroke:none;fill-rule:nonzero;fill:rgb(0%,0%,0%);fill-opacity:1;" d="M 6.195312 0.707031 C 6.269531 0.707031 6.347656 0.707031 6.425781 0.707031 C 6.714844 0.707031 6.996094 0.722656 7.285156 0.769531 C 7.3125 0.777344 7.335938 0.78125 7.363281 0.785156 C 7.734375 0.84375 8.078125 0.949219 8.429688 1.085938 C 8.460938 1.097656 8.492188 1.109375 8.523438 1.121094 C 9.203125 1.394531 9.816406 1.78125 10.34375 2.285156 C 10.367188 2.308594 10.367188 2.308594 10.390625 2.332031 C 10.746094 2.667969 11.03125 3.03125 11.292969 3.449219 C 11.304688 3.46875 11.316406 3.492188 11.332031 3.511719 C 11.394531 3.617188 11.445312 3.707031 11.457031 3.828125 C 11.191406 3.9375 10.925781 4.042969 10.65625 4.144531 C 9.941406 4.410156 9.25 4.738281 8.601562 5.144531 C 8.574219 5.160156 8.546875 5.175781 8.519531 5.191406 C 8.136719 5.429688 7.765625 5.679688 7.410156 5.949219 C 7.339844 6.003906 7.269531 6.050781 7.203125 6.101562 C 6.933594 6.296875 6.675781 6.496094 6.429688 6.714844 C 6.40625 6.730469 6.386719 6.75 6.363281 6.769531 C 6.308594 6.816406 6.253906 6.867188 6.199219 6.914062 C 6.167969 6.941406 6.167969 6.941406 6.136719 6.96875 C 5.960938 7.125 5.792969 7.289062 5.625 7.453125 C 5.601562 7.480469 5.578125 7.503906 5.550781 7.53125 C 5.40625 7.675781 5.265625 7.824219 5.140625 7.988281 C 5.082031 8.0625 5.019531 8.132812 4.957031 8.203125 C 4.832031 8.339844 4.714844 8.480469 4.601562 8.628906 C 4.570312 8.667969 4.539062 8.707031 4.503906 8.746094 C 4.160156 9.1875 3.863281 9.636719 3.582031 10.121094 C 3.464844 10.320312 3.347656 10.519531 3.226562 10.722656 C 3.191406 10.78125 3.15625 10.839844 3.121094 10.902344 C 3.097656 10.9375 3.074219 10.976562 3.054688 11.011719 C 3.039062 11.039062 3.039062 11.039062 3.023438 11.0625 C 2.96875 11.15625 2.914062 11.25 2.855469 11.34375 C 2.308594 11.253906 1.664062 10.453125 1.351562 10.023438 C 1.234375 9.859375 1.128906 9.6875 1.027344 9.515625 C 1.011719 9.484375 1.011719 9.484375 0.992188 9.453125 C 0.789062 9.097656 0.640625 8.730469 0.515625 8.34375 C 0.503906 8.308594 0.492188 8.273438 0.480469 8.238281 C 0.449219 8.140625 0.421875 8.042969 0.398438 7.941406 C 0.394531 7.921875 0.390625 7.898438 0.382812 7.875 C 0.21875 7.117188 0.21875 6.273438 0.371094 5.515625 C 0.375 5.488281 0.382812 5.460938 0.386719 5.4375 C 0.5625 4.527344 0.953125 3.640625 1.570312 2.941406 C 1.589844 2.921875 1.609375 2.898438 1.628906 2.875 C 1.972656 2.480469 2.34375 2.132812 2.769531 1.828125 C 2.789062 1.816406 2.804688 1.804688 2.824219 1.789062 C 3.800781 1.085938 4.992188 0.699219 6.195312 0.707031 Z M 6.195312 0.707031 "/>
<path style=" stroke:none;fill-rule:nonzero;fill:rgb(0%,0%,0%);fill-opacity:1;" d="M 29.460938 2.074219 C 29.527344 2.132812 29.589844 2.195312 29.65625 2.257812 C 29.695312 2.292969 29.734375 2.324219 29.773438 2.359375 C 30.007812 2.5625 30.203125 2.785156 30.390625 3.035156 C 30.414062 3.066406 30.441406 3.101562 30.464844 3.132812 C 31.234375 4.132812 31.613281 5.40625 31.609375 6.65625 C 31.609375 6.691406 31.609375 6.691406 31.609375 6.726562 C 31.605469 8.109375 31.070312 9.4375 30.152344 10.46875 C 30.113281 10.515625 30.078125 10.558594 30.039062 10.605469 C 29.984375 10.667969 29.9375 10.722656 29.875 10.773438 C 29.84375 10.800781 29.84375 10.800781 29.816406 10.824219 C 29.789062 10.84375 29.765625 10.863281 29.742188 10.886719 C 29.710938 10.914062 29.679688 10.941406 29.644531 10.96875 C 29.609375 11 29.574219 11.03125 29.542969 11.0625 C 29.523438 11.074219 29.507812 11.089844 29.492188 11.105469 C 29.179688 11.375 29.179688 11.375 29.085938 11.367188 C 29.007812 11.332031 28.992188 11.292969 28.953125 11.214844 C 28.941406 11.191406 28.925781 11.164062 28.914062 11.136719 C 28.890625 11.09375 28.890625 11.09375 28.871094 11.046875 C 28.839844 10.988281 28.808594 10.925781 28.777344 10.867188 C 28.753906 10.820312 28.753906 10.820312 28.730469 10.773438 C 28.230469 9.789062 27.574219 8.847656 26.828125 8.03125 C 26.777344 7.976562 26.730469 7.921875 26.679688 7.867188 C 26.382812 7.527344 26.070312 7.210938 25.738281 6.90625 C 25.695312 6.863281 25.648438 6.824219 25.605469 6.78125 C 25.429688 6.621094 25.242188 6.472656 25.050781 6.324219 C 25 6.285156 24.953125 6.246094 24.902344 6.207031 C 24.351562 5.765625 23.757812 5.378906 23.144531 5.027344 C 23.105469 5.007812 23.105469 5.007812 23.070312 4.988281 C 22.320312 4.5625 21.527344 4.195312 20.703125 3.941406 C 20.671875 3.929688 20.640625 3.921875 20.609375 3.910156 C 20.566406 3.898438 20.566406 3.898438 20.523438 3.886719 C 20.488281 3.871094 20.488281 3.871094 20.457031 3.855469 C 20.417969 3.742188 20.453125 3.707031 20.503906 3.597656 C 20.828125 2.964844 21.328125 2.40625 21.886719 1.972656 C 21.910156 1.953125 21.910156 1.953125 21.933594 1.933594 C 22.300781 1.648438 22.691406 1.4375 23.109375 1.234375 C 23.148438 1.214844 23.148438 1.214844 23.191406 1.195312 C 23.488281 1.054688 23.78125 0.957031 24.101562 0.882812 C 24.132812 0.875 24.164062 0.867188 24.195312 0.859375 C 26.007812 0.433594 28.03125 0.847656 29.460938 2.074219 Z M 29.460938 2.074219 "/>
<path style=" stroke:none;fill-rule:nonzero;fill:rgb(0%,0%,0%);fill-opacity:1;" d="M 18.074219 9.1875 C 18.425781 9.46875 18.714844 9.785156 18.941406 10.171875 C 18.953125 10.1875 18.964844 10.207031 18.972656 10.222656 C 19.398438 10.9375 19.570312 11.835938 19.367188 12.648438 C 19.351562 12.707031 19.332031 12.769531 19.3125 12.828125 C 19.308594 12.851562 19.300781 12.871094 19.296875 12.894531 C 19.035156 13.785156 18.445312 14.507812 17.636719 14.964844 C 17.210938 15.1875 16.738281 15.347656 16.253906 15.347656 C 16.234375 15.347656 16.214844 15.347656 16.195312 15.347656 C 16.15625 15.347656 16.117188 15.347656 16.078125 15.347656 C 16.019531 15.347656 15.960938 15.347656 15.902344 15.347656 C 15.613281 15.347656 15.335938 15.34375 15.0625 15.25 C 15.03125 15.242188 15.03125 15.242188 15 15.230469 C 14.558594 15.082031 14.15625 14.875 13.800781 14.570312 C 13.777344 14.554688 13.753906 14.535156 13.730469 14.515625 C 13.085938 13.960938 12.675781 13.160156 12.570312 12.3125 C 12.566406 12.179688 12.566406 12.046875 12.566406 11.914062 C 12.566406 11.878906 12.566406 11.84375 12.566406 11.808594 C 12.566406 11.550781 12.566406 11.550781 12.601562 11.484375 C 12.605469 11.433594 12.613281 11.382812 12.621094 11.328125 C 12.746094 10.503906 13.238281 9.714844 13.898438 9.207031 C 14.082031 9.074219 14.28125 8.960938 14.484375 8.855469 C 14.507812 8.84375 14.535156 8.832031 14.558594 8.820312 C 14.789062 8.707031 15.035156 8.632812 15.285156 8.570312 C 15.308594 8.566406 15.328125 8.5625 15.351562 8.554688 C 16.273438 8.34375 17.324219 8.625 18.074219 9.1875 Z M 18.074219 9.1875 "/>
<path style=" stroke:none;fill-rule:nonzero;fill:rgb(0%,0%,0%);fill-opacity:1;" d="M 16.007812 19.046875 C 16.027344 19.046875 16.046875 19.046875 16.066406 19.046875 C 16.992188 19.054688 17.796875 19.417969 18.464844 20.054688 C 18.839844 20.449219 19.105469 20.914062 19.285156 21.429688 C 19.292969 21.453125 19.304688 21.480469 19.3125 21.503906 C 19.585938 22.371094 19.421875 23.3125 19.023438 24.105469 C 18.734375 24.617188 18.335938 25.066406 17.828125 25.371094 C 17.8125 25.382812 17.792969 25.394531 17.773438 25.402344 C 17.539062 25.542969 17.296875 25.652344 17.035156 25.742188 C 17.011719 25.75 16.984375 25.757812 16.960938 25.765625 C 16.644531 25.867188 16.335938 25.894531 16.007812 25.894531 C 15.972656 25.894531 15.9375 25.894531 15.902344 25.894531 C 14.980469 25.882812 14.140625 25.480469 13.5 24.828125 C 12.902344 24.195312 12.539062 23.324219 12.566406 22.449219 C 12.582031 22.042969 12.628906 21.667969 12.769531 21.285156 C 12.789062 21.242188 12.789062 21.242188 12.804688 21.195312 C 13.128906 20.363281 13.785156 19.683594 14.601562 19.3125 C 14.699219 19.273438 14.800781 19.238281 14.90625 19.203125 C 14.929688 19.195312 14.953125 19.1875 14.976562 19.175781 C 15.316406 19.070312 15.65625 19.046875 16.007812 19.046875 Z M 16.007812 19.046875 "/>
<path style=" stroke:none;fill-rule:nonzero;fill:rgb(0%,0%,0%);fill-opacity:1;" d="M 14.054688 0.734375 C 14.101562 0.734375 14.148438 0.734375 14.195312 0.734375 C 14.320312 0.734375 14.441406 0.734375 14.566406 0.734375 C 14.644531 0.734375 14.722656 0.734375 14.800781 0.734375 C 15.070312 0.734375 15.34375 0.730469 15.613281 0.730469 C 15.867188 0.730469 16.121094 0.730469 16.371094 0.730469 C 16.589844 0.730469 16.808594 0.730469 17.023438 0.730469 C 17.152344 0.730469 17.285156 0.730469 17.414062 0.730469 C 17.535156 0.726562 17.65625 0.726562 17.777344 0.730469 C 17.824219 0.730469 17.867188 0.730469 17.910156 0.726562 C 18.328125 0.726562 18.675781 0.800781 18.984375 1.09375 C 19.25 1.375 19.332031 1.640625 19.324219 2.019531 C 19.308594 2.316406 19.164062 2.589844 18.949219 2.789062 C 18.699219 2.992188 18.425781 3.058594 18.109375 3.0625 C 18.089844 3.0625 18.070312 3.0625 18.050781 3.0625 C 17.984375 3.0625 17.917969 3.0625 17.851562 3.0625 C 17.804688 3.0625 17.757812 3.0625 17.710938 3.0625 C 17.582031 3.0625 17.453125 3.0625 17.324219 3.0625 C 17.242188 3.0625 17.164062 3.0625 17.082031 3.0625 C 16.832031 3.0625 16.578125 3.0625 16.328125 3.0625 C 16.035156 3.0625 15.746094 3.066406 15.457031 3.066406 C 15.230469 3.066406 15.007812 3.066406 14.78125 3.066406 C 14.648438 3.066406 14.511719 3.066406 14.378906 3.066406 C 14.253906 3.066406 14.125 3.066406 14 3.066406 C 13.953125 3.066406 13.90625 3.066406 13.859375 3.066406 C 13.484375 3.070312 13.210938 3.023438 12.914062 2.769531 C 12.664062 2.515625 12.558594 2.230469 12.554688 1.878906 C 12.554688 1.855469 12.554688 1.832031 12.554688 1.808594 C 12.558594 1.507812 12.703125 1.273438 12.910156 1.058594 C 13.238281 0.753906 13.628906 0.734375 14.054688 0.734375 Z M 14.054688 0.734375 "/>
</g>
</svg>
