<?xml version="1.0" encoding="UTF-8"?>
<svg version="1.1" xmlns="http://www.w3.org/2000/svg" width="1120" height="1120">
<path d="M0 0 C369.6 0 739.2 0 1120 0 C1120 369.6 1120 739.2 1120 1120 C750.4 1120 380.8 1120 0 1120 C0 750.4 0 380.8 0 0 Z " fill="#000000" transform="translate(0,0)"/>
<path d="M0 0 C1.59739014 0.22429687 1.59739014 0.22429687 3.22705078 0.453125 C77.71013624 11.05325444 154.45752715 45.87332942 209.4453125 97.62109375 C211.44927623 99.48717007 213.4795703 101.27166583 215.55859375 103.05078125 C220.70791069 107.54016116 225.53528562 112.34923125 230.36303711 117.17773438 C231.92608734 118.73860327 233.49697365 120.29127888 235.06835938 121.84375 C241.49805227 128.23806066 247.35755898 134.88871673 253 142 C253.8632196 143.02769172 254.73160885 144.05111075 255.609375 145.06640625 C276.8395022 169.82197428 293.3423996 197.99824553 308 227 C308.37366699 227.73653809 308.74733398 228.47307617 309.13232422 229.23193359 C330.34689305 271.44780847 343.12110658 318.96510598 347 366 C347.1403064 367.59968628 347.1403064 367.59968628 347.28344727 369.23168945 C348.21023367 381.0825492 348.19964541 392.93181176 348.1875 404.8125 C348.18659363 406.44514801 348.18659363 406.44514801 348.18566895 408.11077881 C348.15092717 431.14584624 346.96544868 453.38884659 342.56201172 476.04443359 C341.97631631 479.1245503 341.43991823 482.21058179 340.91015625 485.30078125 C338.15880734 500.98358826 334.01558298 515.9010054 329 531 C328.65453125 532.06718262 328.3090625 533.13436523 327.953125 534.23388672 C314.70768528 575.1131193 295.08940145 615.48641367 268.34082031 649.29443359 C267.02503582 650.96815363 265.7388671 652.66053717 264.4609375 654.36328125 C252.40464206 670.38834535 238.88444324 685.17156018 224.75 699.375 C224.10063477 700.02903809 223.45126953 700.68307617 222.78222656 701.35693359 C218.35155638 705.77297739 213.74497639 709.92559054 209 714 C208.03578125 714.845625 207.0715625 715.69125 206.078125 716.5625 C191.89811454 728.78394548 176.80643631 739.97094839 161 750 C160.33919434 750.42168457 159.67838867 750.84336914 158.99755859 751.27783203 C130.59568258 769.3032537 100.88395661 783.04557508 69.08789062 793.93798828 C66.42108406 794.85517745 63.76389662 795.79412351 61.109375 796.74609375 C41.35020745 803.73403832 20.68761152 807.87734166 0 811 C-0.95696777 811.14566406 -1.91393555 811.29132812 -2.89990234 811.44140625 C-18.91090471 813.8153869 -34.82575723 814.7231623 -51 815 C-52.11810059 815.02191406 -53.23620117 815.04382812 -54.38818359 815.06640625 C-71.3594053 815.36117345 -88.10062719 814.5266412 -105 813 C-105.89187012 812.92523437 -106.78374023 812.85046875 -107.70263672 812.7734375 C-120.01873214 811.73931637 -131.94605598 809.7103768 -144 807 C-145.19963379 806.73445312 -146.39926758 806.46890625 -147.63525391 806.1953125 C-212.83862994 791.6743876 -274.98399175 762.49155806 -325.46386719 718.32568359 C-327.00034292 716.99970406 -328.56106968 715.70967864 -330.1328125 714.42578125 C-337.98566371 707.95499425 -345.24820395 700.94019145 -352.4375 693.75 C-352.91017303 693.27823334 -353.38284607 692.80646667 -353.86984253 692.32040405 C-359.46649255 686.72253698 -364.87207323 681.02973172 -370 675 C-370.88880663 673.97871712 -371.77809699 672.95785494 -372.66796875 671.9375 C-414.47309718 623.19725724 -446.01127854 562.75674123 -460 500 C-460.22324951 499.07413086 -460.44649902 498.14826172 -460.67651367 497.19433594 C-462.67075415 488.84564201 -464.20447413 480.4737387 -465.5625 472 C-465.77068359 470.75605469 -465.97886719 469.51210938 -466.19335938 468.23046875 C-469.58039013 447.27122513 -470.40579839 426.53112452 -470.375 405.3125 C-470.3749081 404.64259537 -470.37481621 403.97269073 -470.37472153 403.28248596 C-470.37094343 381.94428357 -469.70585554 361.04949776 -466 340 C-465.80212891 338.85370117 -465.60425781 337.70740234 -465.40039062 336.52636719 C-464.12209943 329.30546983 -462.63865176 322.14712111 -461 315 C-460.71237793 313.72358643 -460.71237793 313.72358643 -460.41894531 312.42138672 C-452.78630872 278.95470563 -440.35980943 247.63200497 -425 217 C-424.60603027 216.20948242 -424.21206055 215.41896484 -423.80615234 214.60449219 C-414.28799482 195.63535426 -402.72294799 177.95836141 -390 161 C-389.5555957 160.40251953 -389.11119141 159.80503906 -388.65332031 159.18945312 C-382.15185849 150.46420152 -375.1985922 142.15551434 -368 134 C-367.34837891 133.25935303 -366.69675781 132.51870605 -366.02539062 131.75561523 C-360.57008696 125.61839861 -354.90354819 119.71728246 -349.09863281 113.91333008 C-347.6279359 112.44044028 -346.16546466 110.95969735 -344.703125 109.47851562 C-339.24217459 103.98545273 -333.5961216 98.87274782 -327.53442383 94.03808594 C-325.26569927 92.21366511 -323.08056976 90.33376206 -320.91015625 88.39453125 C-279.60437666 51.91738155 -225.86098331 25.51807379 -173 11 C-172.25282715 10.79133301 -171.5056543 10.58266602 -170.73583984 10.36767578 C-159.36037519 7.20209988 -147.93211459 4.63642234 -136.32958984 2.45117188 C-134.80587551 2.15607398 -133.28506192 1.84546952 -131.76806641 1.51757812 C-89.04560513 -7.6276287 -42.98779293 -6.39478391 0 0 Z " fill="#000000" transform="translate(621,210)"/>
<path d="M0 0 C0.66032227 0.09901611 1.32064453 0.19803223 2.00097656 0.30004883 C10.71755362 1.62437276 19.3683602 3.20731682 28 5 C29.00321289 5.2077002 30.00642578 5.41540039 31.04003906 5.62939453 C42.42331671 8.02478975 53.62987364 10.84332496 64.73852539 14.29907227 C66.46741323 14.83492858 68.19885769 15.36254287 69.93139648 15.88647461 C118.77110911 30.71379683 165.14391901 52.72298147 207 82 C208.11012451 82.7744043 208.11012451 82.7744043 209.24267578 83.56445312 C223.08381426 93.26946439 236.39555258 103.5930076 248.8515625 115.03515625 C250.82501082 116.83996444 252.83863832 118.57951465 254.875 120.3125 C260.04519003 124.80877524 264.80651191 129.72833263 269.61767578 134.60107422 C272.79561778 137.81718295 276.00108025 141.00372752 279.234375 144.1640625 C285.53923831 150.35388658 291.5129338 156.55883613 296.99609375 163.49609375 C298.89933361 165.87421607 300.88444304 168.12602508 302.9375 170.375 C307.9661751 175.98771414 312.49917353 181.96348716 317 188 C317.49129395 188.65613281 317.98258789 189.31226563 318.48876953 189.98828125 C332.92993906 209.35869115 345.40713126 229.81971699 357 251 C357.7130127 252.28825684 357.7130127 252.28825684 358.44042969 253.60253906 C369.71378759 274.04289619 378.8582752 295.50758411 386.20556641 317.65527344 C387.01243958 320.03671474 387.86380624 322.3975196 388.73046875 324.7578125 C398.68833017 351.99889031 405.00524201 380.46527104 409.25 409.125 C409.40106201 410.12192871 409.55212402 411.11885742 409.70776367 412.14599609 C412.85087836 434.74167565 413.40513567 457.53310881 413.375 480.3125 C413.37541165 481.67067466 413.37586991 483.0288493 413.37637329 484.38702393 C413.3645213 512.03401509 411.3213214 538.85553105 406 566 C405.68010555 567.69775033 405.36094517 569.39563939 405.04296875 571.09375 C404.08797401 576.07510435 403.05657391 581.03928996 402 586 C401.82194824 586.84868652 401.64389648 587.69737305 401.46044922 588.57177734 C398.36497591 602.97128004 393.8738201 616.82773164 389.125 630.75 C388.68936737 632.03177628 388.68936737 632.03177628 388.24493408 633.33944702 C382.16167705 651.16613364 375.44843712 668.65421279 367.125 685.5625 C366.51505786 686.8108755 365.90527899 688.05933078 365.2956543 689.30786133 C355.14036025 710.04249006 344.12384548 729.97402291 331 749 C330.5767041 749.61633301 330.1534082 750.23266602 329.71728516 750.86767578 C313.1831904 774.8732931 294.82454977 797.57085308 274 818 C271.25956144 820.7265512 268.53785172 823.46974788 265.8359375 826.234375 C259.66175635 832.52330465 253.47300552 838.48601715 246.5546875 843.95703125 C242.56438891 847.14804985 238.78502613 850.57011212 235 854 C236.39820801 857.89579393 238.23096513 861.02755751 240.58984375 864.421875 C241.29173828 865.44796875 241.99363281 866.4740625 242.71679688 867.53125 C244.18870579 869.66467647 245.66522103 871.79493277 247.14648438 873.921875 C253.57762701 883.35343157 256.58388149 890.69269665 256.5 902.125 C256.49427979 903.04079834 256.48855957 903.95659668 256.48266602 904.90014648 C256.09490438 919.82701109 250.15926895 934.44541447 239.3125 944.875 C234.00799548 949.31149469 228.38219533 952.38338378 222 955 C220.76056641 955.51046875 220.76056641 955.51046875 219.49609375 956.03125 C206.47208333 960.4337324 189.44999384 959.54836682 177 954 C167.17840287 948.59812158 160.16649602 941.4243834 153 933 C151.77213185 931.60302426 150.54313722 930.20703699 149.3125 928.8125 C147.48310769 926.73304687 145.70776009 924.63624859 143.97265625 922.4765625 C143.28042969 921.63867188 142.58820312 920.80078125 141.875 919.9375 C141.25367188 919.16277344 140.63234375 918.38804687 139.9921875 917.58984375 C139.33476563 917.06519531 138.67734375 916.54054688 138 916 C134.5284174 916.41489557 131.62366541 917.47704274 128.46484375 918.93359375 C127.58763672 919.33022217 126.71042969 919.72685059 125.80664062 920.13549805 C124.85982422 920.56515869 123.91300781 920.99481934 122.9375 921.4375 C103.12821373 930.22269553 82.59553551 937.17023433 61.78930664 943.18896484 C59.81055502 943.76431827 57.83615813 944.35474473 55.86499023 944.95556641 C46.28197781 947.81771117 36.63297338 949.78003393 26.8125 951.625 C25.23491696 951.92651314 23.65744238 952.22859435 22.08007812 952.53125 C17.72209851 953.36522189 13.36160111 954.18520819 9 955 C7.90969482 955.20463867 6.81938965 955.40927734 5.69604492 955.62011719 C-2.16995611 957.07710822 -10.05181756 958.10252487 -18 959 C-19.14567696 959.12982269 -19.14567696 959.12982269 -20.3144989 959.26226807 C-36.21393965 961.01041875 -52.01336819 961.39976902 -68 961.375 C-69.26636292 961.37478851 -70.53272583 961.37457703 -71.83746338 961.37435913 C-93.44917603 961.33850895 -114.63164779 960.24293459 -136 957 C-137.27311035 956.80744629 -138.5462207 956.61489258 -139.85791016 956.41650391 C-167.45622024 952.08515775 -194.50786763 945.64488089 -221 936.8125 C-221.71722229 936.57389252 -222.43444458 936.33528503 -223.17340088 936.08944702 C-234.80558107 932.20587413 -246.20317751 927.93190499 -257.47265625 923.08496094 C-260.16324376 921.92992125 -262.86171482 920.79503984 -265.5625 919.6640625 C-270.04600385 917.78616571 -274.52441809 915.8966958 -279 914 C-279.39505737 914.87833496 -279.39505737 914.87833496 -279.7980957 915.77441406 C-281.05322783 918.09856286 -282.40685954 919.70607738 -284.23046875 921.609375 C-284.86919922 922.28226563 -285.50792969 922.95515625 -286.16601562 923.6484375 C-286.83310547 924.34195313 -287.50019531 925.03546875 -288.1875 925.75 C-289.49485178 927.11849162 -290.80084525 928.48828217 -292.10546875 929.859375 C-292.75459229 930.54088623 -293.40371582 931.22239746 -294.07250977 931.92456055 C-295.97220256 933.9700689 -297.79016322 936.06765367 -299.6015625 938.19140625 C-307.3370703 947.0959177 -316.78922358 953.35848539 -328 957 C-329.10021484 957.36544922 -329.10021484 957.36544922 -330.22265625 957.73828125 C-344.23554207 961.58855081 -358.07240418 958.69444454 -370.75 952.25 C-384.30171071 944.37109842 -393.29167401 932.37966248 -397.50634766 917.30371094 C-401.53910466 898.48417824 -394.93268713 882.61431422 -385 867 C-382.94700616 864.0294575 -380.77626666 861.16057406 -378.53125 858.33203125 C-376.89311691 855.83722141 -376.37573151 853.93801163 -376 851 C-376.64324219 850.48953125 -377.28648437 849.9790625 -377.94921875 849.453125 C-388.55350799 840.92128601 -398.47190823 831.71614621 -408 822 C-410.87174743 819.11319095 -413.76409592 816.24884568 -416.671875 813.3984375 C-424.28348458 805.90764712 -431.40105867 798.40206762 -438 790 C-439.60009158 788.10072602 -441.20446485 786.20505322 -442.8125 784.3125 C-463.28178131 759.73672707 -480.68942305 732.6400747 -495.68945312 704.44042969 C-496.80461414 702.36383702 -497.94466974 700.30683101 -499.109375 698.2578125 C-506.13911428 685.67980792 -511.48799026 672.29165665 -517 659 C-517.34949707 658.16597656 -517.69899414 657.33195313 -518.05908203 656.47265625 C-527.50244449 633.82069969 -534.65130721 609.92651502 -540 586 C-540.27336182 584.78836182 -540.27336182 584.78836182 -540.55224609 583.55224609 C-543.01558462 572.44763584 -544.83518241 561.22900813 -546.625 550 C-546.83133057 548.71931641 -547.03766113 547.43863281 -547.25024414 546.11914062 C-547.8773207 542.08426065 -548.45839068 538.04709143 -549 534 C-549.09642792 533.2905423 -549.19285583 532.58108459 -549.29220581 531.85012817 C-551.42065724 515.59749826 -551.3571196 499.29971536 -551.3125 482.9375 C-551.31027883 481.50223802 -551.30810226 480.06697598 -551.30596924 478.63171387 C-551.26206956 457.30834721 -550.91984196 436.15526237 -548 415 C-547.90289734 414.28741028 -547.80579468 413.57482056 -547.70574951 412.84063721 C-539.57149363 353.78461685 -520.65313829 296.44191406 -491.37841797 244.45556641 C-490.1129335 242.20118405 -488.86689728 239.93753098 -487.62890625 237.66796875 C-472.2224194 209.56420097 -452.69355757 183.00599556 -431.12109375 159.33984375 C-429.19213665 157.21195185 -427.30963647 155.05279141 -425.4375 152.875 C-422.3933597 149.37176662 -419.14480368 146.12291051 -415.8359375 142.87109375 C-413.81481721 140.86814445 -413.81481721 140.86814445 -411.5 137.9375 C-408.94120282 134.93091332 -406.22498992 132.52578731 -403.2265625 129.9765625 C-400.76553431 127.79186028 -398.4849599 125.48080809 -396.1875 123.125 C-391.9686075 118.85426243 -387.53909334 115.0271278 -382.8359375 111.30078125 C-380.5533579 109.44893637 -378.34827136 107.55643126 -376.1484375 105.609375 C-328.48248875 63.69582688 -266.89091214 32.50801516 -206 15 C-205.10845215 14.7417041 -204.2169043 14.4834082 -203.29833984 14.21728516 C-181.81794691 8.04685862 -160.13218715 3.14163873 -138 0 C-136.12562256 -0.277229 -136.12562256 -0.277229 -134.21337891 -0.56005859 C-90.23081081 -6.93644464 -43.93958275 -6.61005081 0 0 Z M-153 77 C-153.82564453 77.18143555 -154.65128906 77.36287109 -155.50195312 77.54980469 C-216.13412513 90.90359238 -273.33277359 117.3328886 -322 156 C-322.87914062 156.68578125 -323.75828125 157.3715625 -324.6640625 158.078125 C-329.74870478 162.07657434 -334.61125815 166.26186083 -339.3828125 170.62890625 C-340.79607206 171.90927722 -342.21522149 173.18382648 -343.6652832 174.42236328 C-349.49325145 179.41089368 -354.94242267 184.756276 -360.36303711 190.17773438 C-361.92608734 191.73860327 -363.49697365 193.29127888 -365.06835938 194.84375 C-371.49805227 201.23806066 -377.35755898 207.88871673 -383 215 C-383.8632196 216.02769172 -384.73160885 217.05111075 -385.609375 218.06640625 C-406.84384121 242.82703382 -423.32584524 271.00107511 -438 300 C-438.60908203 301.19399414 -438.60908203 301.19399414 -439.23046875 302.41210938 C-460.21362647 343.84131327 -472.00041556 389.97014036 -477 436 C-477.08588379 436.78181641 -477.17176758 437.56363281 -477.26025391 438.36914062 C-478.00564934 445.71956786 -478.17667485 453.01364442 -478.203125 460.3984375 C-478.20882507 461.66805328 -478.21452515 462.93766907 -478.22039795 464.24575806 C-478.22980469 466.93015086 -478.23672165 469.61443324 -478.24023438 472.29882812 C-478.2466896 476.30094831 -478.28084018 480.30268793 -478.3125 484.3046875 C-478.4174954 509.90509479 -475.95409393 534.8753199 -471 560 C-470.782229 561.1432373 -470.782229 561.1432373 -470.56005859 562.30957031 C-467.82304089 576.52185831 -463.45937376 590.24777685 -459 604 C-458.65308105 605.07878418 -458.30616211 606.15756836 -457.94873047 607.26904297 C-444.69831308 648.133256 -425.08108586 688.4969239 -398.34082031 722.29443359 C-397.02503582 723.96815363 -395.7388671 725.66053717 -394.4609375 727.36328125 C-378.16301659 749.0262563 -359.18780028 771.25029607 -337.6875 787.84765625 C-335.30380631 789.75669 -333.05377825 791.73845832 -330.7890625 793.78515625 C-326.17014527 797.9147814 -321.34655947 801.68172993 -316.375 805.375 C-315.06523193 806.35098145 -315.06523193 806.35098145 -313.72900391 807.34667969 C-264.7393899 843.60670895 -208.55003885 868.3078946 -149 881 C-148.19288574 881.17466797 -147.38577148 881.34933594 -146.55419922 881.52929688 C-117.89186075 887.5908579 -88.18204429 888.38194266 -59 888 C-57.33372559 887.98114746 -57.33372559 887.98114746 -55.63378906 887.96191406 C-0.92712805 887.17186797 52.21195667 873.13927981 102 851 C102.82177734 850.63729004 103.64355469 850.27458008 104.49023438 849.90087891 C124.74778883 840.88058055 143.82836681 829.67705723 162 817 C162.62696777 816.5659082 163.25393555 816.13181641 163.89990234 815.68457031 C186.01977165 800.33223638 206.30447169 782.72788869 225.375 763.75 C226.02903809 763.10063477 226.68307617 762.45126953 227.35693359 761.78222656 C231.77289835 757.35163568 235.92837504 752.74735194 240 748 C240.88927247 746.97912272 241.77859131 745.95828583 242.66796875 744.9375 C275.18694691 707.02390065 300.18428753 662.96373459 317 616 C317.39848145 614.88834473 317.79696289 613.77668945 318.20751953 612.63134766 C328.85882433 582.58022421 336.57957832 550.86679525 339 519 C339.08540039 517.92588867 339.17080078 516.85177734 339.25878906 515.74511719 C340.12088509 503.70976226 340.24209853 491.68798436 340.25 479.625 C340.25100708 478.55195618 340.25201416 477.47891235 340.25305176 476.37335205 C340.21148719 410.49962021 324.47954823 348.88505382 295 290 C294.61666504 289.22543457 294.23333008 288.45086914 293.83837891 287.65283203 C281.17456966 262.19215388 264.79707821 238.64129788 246.56787109 216.87646484 C245.10161309 215.12161293 243.65381047 213.35293826 242.20703125 211.58203125 C234.91543039 202.79731679 226.92161045 194.71060489 218.875 186.625 C218.04544296 185.78754242 218.04544296 185.78754242 217.1991272 184.9331665 C210.89402515 178.58168709 204.50389875 172.57656168 197.49047852 166.99633789 C195.23435102 165.18785299 193.06567035 163.32075243 190.91015625 161.39453125 C149.81834861 125.10634026 96.57583474 99.09806676 44.02587891 84.57226562 C42.03215163 84.00908212 40.05361292 83.4083392 38.07421875 82.796875 C-22.30134775 64.51137146 -91.69053676 62.99153033 -153 77 Z " fill="#ffffff" transform="translate(629,137)"/>
<path d="M0 0 C2.67194296 0.01072874 5.34321387 0.00003512 8.01513672 -0.01269531 C18.25482438 -0.02138981 28.05714026 0.56646143 38.17529297 2.26074219 C39.06974121 2.40141113 39.96418945 2.54208008 40.88574219 2.68701172 C53.83788342 4.81138183 65.94673485 8.54800107 78.17529297 13.26074219 C79.28388672 13.68355469 80.39248047 14.10636719 81.53466797 14.54199219 C105.23601849 24.0225324 126.68175517 37.67062434 145.17529297 55.26074219 C146.01447266 56.05109863 146.01447266 56.05109863 146.87060547 56.85742188 C159.33441746 68.66489483 169.31473591 81.37624853 178.36279297 95.94824219 C178.83297852 96.70274658 179.30316406 97.45725098 179.78759766 98.23461914 C181.98622675 101.87666386 183.74052656 104.9386526 184.17529297 109.26074219 C174.87251597 113.01782506 165.56896021 116.75881578 156.17285156 120.27734375 C131.16483001 129.65476982 106.86066017 141.12597763 84.17529297 155.26074219 C83.23572754 155.84339844 82.29616211 156.42605469 81.328125 157.02636719 C67.96804278 165.34550713 55.0240381 174.0267934 42.47998047 183.52978516 C40.0828337 185.33018458 37.66436954 187.09789431 35.23779297 188.85839844 C25.88587443 195.64900451 16.86071212 202.63604233 8.17529297 210.26074219 C7.44310547 210.89367187 6.71091797 211.52660156 5.95654297 212.17871094 C4.01763252 213.8598694 2.09539263 215.55813614 0.17529297 217.26074219 C-0.9167041 218.22657227 -0.9167041 218.22657227 -2.03076172 219.21191406 C-8.16374491 224.67951468 -14.08030714 230.32379623 -19.88720703 236.13574219 C-20.76481689 237.01343262 -21.64242676 237.89112305 -22.54663086 238.79541016 C-27.66446559 243.9586539 -32.4960055 249.14701693 -36.95751953 254.88964844 C-38.99504856 257.47705455 -41.16390818 259.89408233 -43.38720703 262.32324219 C-47.760376 267.13973928 -51.82015686 272.13571357 -55.82470703 277.26074219 C-56.9235455 278.6527639 -58.02251492 280.04468224 -59.12158203 281.43652344 C-71.19976669 296.77934862 -81.54249261 312.60799446 -91.40736389 329.44136047 C-95.53196614 336.47645525 -99.69891182 343.48631634 -103.86578369 350.49642944 C-105.11686045 352.60150677 -106.36716171 354.70704259 -107.6171875 356.81274414 C-108.39078181 358.11572619 -109.16438179 359.41870487 -109.93798828 360.72167969 C-110.46198463 361.60437279 -110.46198463 361.60437279 -110.99656677 362.50489807 C-112.93099551 365.7618568 -114.87312028 369.01403563 -116.82470703 372.26074219 C-136.08854739 369.17299744 -158.59181462 341.05327081 -169.50878906 326.11572266 C-173.59643431 320.35358377 -177.28809207 314.37373598 -180.82470703 308.26074219 C-181.45723389 307.16850342 -181.45723389 307.16850342 -182.10253906 306.05419922 C-189.19376559 293.62641495 -194.33717854 280.82794489 -198.82470703 267.26074219 C-199.23462891 266.06449219 -199.64455078 264.86824219 -200.06689453 263.63574219 C-201.15402705 260.19736955 -202.02643462 256.77813 -202.82470703 253.26074219 C-203.00517578 252.46619629 -203.18564453 251.67165039 -203.37158203 250.85302734 C-209.11659386 224.35513073 -209.13720448 194.85432697 -203.82470703 168.26074219 C-203.65310059 167.36049316 -203.48149414 166.46024414 -203.3046875 165.53271484 C-197.12665749 133.7039901 -183.48911212 102.64319072 -161.82470703 78.26074219 C-161.16728516 77.49503906 -160.50986328 76.72933594 -159.83251953 75.94042969 C-147.74788023 62.12289872 -134.77311019 49.90926627 -119.82470703 39.26074219 C-119.21868652 38.82068848 -118.61266602 38.38063477 -117.98828125 37.92724609 C-83.75414345 13.2031183 -42.11816434 -0.20067295 0 0 Z " fill="#ffffff" transform="translate(216.82470703125,24.7392578125)"/>
<path d="M0 0 C2.34521645 2.10495727 4.6404503 4.25258954 6.9296875 6.41796875 C8.29950272 7.61144582 9.67432967 8.79920099 11.0546875 9.98046875 C19.22127471 17.15272099 26.01506341 24.95923325 32.55810547 33.60644531 C33.43432388 34.76371491 34.31567206 35.91713008 35.20361328 37.06542969 C62.1918573 72.05693622 75.41824721 116.57302226 75.3046875 160.41796875 C75.30387177 161.61786942 75.30387177 161.61786942 75.30303955 162.8420105 C75.15262115 211.31343785 56.4549527 257.76728651 24.27661133 293.88037109 C22.9148397 295.43491844 21.60162551 297.02170657 20.29296875 298.62109375 C18.43001887 300.82584104 16.68299704 302.69115284 14.4921875 304.54296875 C13.47511719 305.40921875 13.47511719 305.40921875 12.4375 306.29296875 C11.60992188 306.99421875 10.78234375 307.69546875 9.9296875 308.41796875 C8.80111517 309.39601937 7.67359186 310.3752812 6.546875 311.35546875 C5.32046791 312.41814813 4.09390448 313.4806471 2.8671875 314.54296875 C2.28976807 315.04586426 1.71234863 315.54875977 1.11743164 316.06689453 C-9.80731409 325.47607754 -9.80731409 325.47607754 -13.11328125 325.32397461 C-15.82020095 324.07080857 -16.38301216 322.64855045 -17.69921875 319.9921875 C-18.17037109 319.06140381 -18.64152344 318.13062012 -19.12695312 317.17163086 C-19.87235352 315.65388062 -19.87235352 315.65388062 -20.6328125 314.10546875 C-21.71607427 311.97456155 -22.80073287 309.84436393 -23.88671875 307.71484375 C-24.69713623 306.11092773 -24.69713623 306.11092773 -25.52392578 304.47460938 C-42.97385633 269.98248269 -65.98354605 237.0384529 -92.11328125 208.5546875 C-93.86542735 206.64166571 -95.56732016 204.69781592 -97.2578125 202.73046875 C-107.63973215 190.8755994 -118.61896079 179.79162449 -130.21533203 169.12451172 C-131.7760575 167.68867715 -133.32846557 166.24380921 -134.87890625 164.796875 C-141.06020434 159.10277282 -147.62670388 153.95827651 -154.26904297 148.82080078 C-156.01743354 147.45915098 -157.75114554 146.08106817 -159.48046875 144.6953125 C-178.82402271 129.22603983 -199.53600934 115.63171623 -221.0703125 103.41796875 C-222.35059326 102.68755371 -222.35059326 102.68755371 -223.65673828 101.94238281 C-249.84884967 87.09191007 -277.66879786 74.29729441 -306.46728516 65.36425781 C-307.55960449 65.02362305 -308.65192383 64.68298828 -309.77734375 64.33203125 C-311.26391479 63.88657959 -311.26391479 63.88657959 -312.78051758 63.43212891 C-313.91396606 62.93011963 -313.91396606 62.93011963 -315.0703125 62.41796875 C-316.42955144 58.34025194 -315.27898197 57.10298759 -313.3828125 53.29296875 C-302.10054695 31.18031134 -284.54424733 11.59978948 -265.0703125 -3.58203125 C-264.22871582 -4.23824463 -264.22871582 -4.23824463 -263.37011719 -4.90771484 C-250.50361935 -14.85643898 -236.87872772 -22.32901165 -222.2578125 -29.39453125 C-220.84435547 -30.07902344 -220.84435547 -30.07902344 -219.40234375 -30.77734375 C-209.03169614 -35.70122266 -198.68638795 -39.12578414 -187.5078125 -41.70703125 C-186.44884766 -41.95839844 -185.38988281 -42.20976563 -184.29882812 -42.46875 C-120.84405334 -57.40388491 -49.98241693 -42.9024194 0 0 Z " fill="#ffffff" transform="translate(1031.0703125,72.58203125)"/>
<path d="M0 0 C12.38102517 9.7624745 22.42668669 20.80249427 30.4375 34.375 C30.80069336 34.97924805 31.16388672 35.58349609 31.53808594 36.20605469 C46.35794759 61.16511581 52.39222916 92.60681145 45.27416992 121.02416992 C44.69336947 123.1516486 44.07238214 125.26307472 43.4375 127.375 C43.22319336 128.12185059 43.00888672 128.86870117 42.78808594 129.63818359 C33.7226738 160.86569133 13.03327316 186.15512633 -15.27490234 202.17285156 C-30.15386993 209.99185224 -46.78209321 215.49191256 -63.67578125 215.5078125 C-64.33023727 215.50876923 -64.9846933 215.50972595 -65.65898132 215.51071167 C-67.03461809 215.51138746 -68.41025816 215.50957544 -69.78588867 215.50537109 C-71.85928758 215.5000404 -73.93246731 215.50532319 -76.00585938 215.51171875 C-86.15268044 215.51902125 -95.75650017 215.35405405 -105.4375 212.125 C-106.46701782 211.78903809 -106.46701782 211.78903809 -107.51733398 211.44628906 C-122.9940536 206.30480923 -137.1100109 198.99555867 -149.5625 188.375 C-150.34753906 187.72273437 -151.13257813 187.07046875 -151.94140625 186.3984375 C-174.54772374 166.94073074 -188.86975168 138.96688855 -192.5625 109.375 C-192.80217588 104.68298812 -192.79847454 100.00942814 -192.75 95.3125 C-192.74935547 94.09111328 -192.74871094 92.86972656 -192.74804688 91.61132812 C-192.70334821 82.65669643 -192.70334821 82.65669643 -191.5625 80.375 C-191.31578329 78.54394584 -191.09047268 76.70999319 -190.875 74.875 C-186.47830498 45.94602115 -169.27386577 18.35068456 -146.09765625 0.640625 C-139.62447126 -4.0592673 -132.70622204 -8.04263351 -125.5625 -11.625 C-124.7271875 -12.05425781 -123.891875 -12.48351562 -123.03125 -12.92578125 C-114.90935176 -16.8766444 -106.30083711 -19.42066449 -97.5625 -21.625 C-96.81556885 -21.81481445 -96.0686377 -22.00462891 -95.29907227 -22.20019531 C-62.94806995 -29.58075252 -26.25065163 -19.80955642 0 0 Z " fill="#ffffff" transform="translate(632.5625,321.625)"/>
<path d="M0 0 C0.68269958 0.00281982 1.36539917 0.00563965 2.06878662 0.00854492 C34.4766957 0.20947718 62.58453238 12.9577212 85.9375 35.1875 C99.10075848 49.05242471 108.34708137 65.3547982 114.6875 83.3125 C115.00460937 84.19679688 115.32171875 85.08109375 115.6484375 85.9921875 C125.17724543 116.27681467 119.48242901 149.21136637 105.5 176.9375 C95.36749198 194.85556541 81.39354774 210.6713791 63.6875 221.3125 C63.06423828 221.68858398 62.44097656 222.06466797 61.79882812 222.45214844 C53.49636589 227.36039296 45.0133308 231.16507533 35.875 234.25 C35.04033203 234.53246582 34.20566406 234.81493164 33.34570312 235.10595703 C22.307522 238.63601064 11.48966526 239.68058125 -0.0625 239.625 C-1.29460205 239.61936035 -2.5267041 239.6137207 -3.79614258 239.60791016 C-35.934879 239.18043766 -65.41242811 225.11701435 -87.79272461 202.30102539 C-108.72996829 180.10459587 -121.39750857 149.62688188 -120.53125 119.0234375 C-119.93175875 104.74955086 -118.32256685 91.74064428 -113.3125 78.3125 C-112.74015625 76.74628906 -112.74015625 76.74628906 -112.15625 75.1484375 C-100.76429867 45.97580538 -77.81424238 22.25220506 -49.3125 9.3125 C-45.7875079 7.88125441 -42.22730346 6.59754508 -38.625 5.375 C-37.79468262 5.09237305 -36.96436523 4.80974609 -36.10888672 4.51855469 C-24.23950773 0.73317262 -12.3967487 -0.05502194 0 0 Z " fill="#ffffff" transform="translate(560.3125,666.6875)"/>
<path d="M0 0 C1.60745554 -0.0059929 3.21490822 -0.01280018 4.82235718 -0.02035522 C9.16754826 -0.03794414 13.51266045 -0.04270757 17.85788369 -0.0439868 C20.57822431 -0.0454129 23.29854516 -0.04969114 26.01888084 -0.05498123 C35.52513263 -0.0734574 45.03132851 -0.0816548 54.53759766 -0.08007812 C63.3734679 -0.07887711 72.20909372 -0.09997778 81.04490215 -0.13156545 C88.65286311 -0.15778627 96.26074452 -0.16844301 103.86875027 -0.16716731 C108.40299319 -0.16665942 112.93701864 -0.17224651 117.4712162 -0.19352341 C121.73872214 -0.21300425 126.00580531 -0.21296364 130.27332687 -0.19849014 C131.83086839 -0.19641315 133.38843707 -0.20103604 134.94593239 -0.21321106 C149.48473577 -0.31941469 161.66578181 2.35326628 172.4362793 12.58349609 C181.75268663 22.37027579 184.63174381 31.76568818 184.3659668 45.03662109 C183.80608848 55.39203722 178.74958169 64.98374648 171.21362305 71.96630859 C162.54538558 78.99508062 152.91074616 81.4044966 141.90739441 81.43096924 C141.21441405 81.43394036 140.52143369 81.43691148 139.80745393 81.43997264 C137.49776284 81.44860725 135.18812389 81.45016341 132.87841797 81.45166016 C131.21727896 81.45629198 129.556141 81.46131713 127.89500427 81.46670532 C123.39076708 81.47979477 118.88654478 81.48626733 114.38229156 81.49071598 C111.56567864 81.49365183 108.74906976 81.49775756 105.93245888 81.50222015 C97.11237266 81.51588496 88.29229569 81.52555702 79.47219962 81.52942204 C69.30435014 81.53390273 59.13663509 81.55145541 48.96882647 81.58042264 C41.09941274 81.60206092 33.23003678 81.61212745 25.36059362 81.61346316 C20.66491063 81.6145095 15.96935419 81.62038098 11.27370262 81.63828278 C6.85529168 81.65480099 2.43710192 81.65690082 -1.98132896 81.64814377 C-3.59817982 81.64737544 -5.21504276 81.65168901 -6.8318634 81.66160202 C-20.04289869 81.73781835 -29.65022978 80.07665488 -39.9777832 71.29052734 C-48.7635355 62.40241676 -52.39609596 52.42479206 -52.5402832 40.10302734 C-52.55502686 39.27182373 -52.56977051 38.44062012 -52.58496094 37.58422852 C-52.41040256 27.04487478 -47.3005076 18.80455474 -40.13012695 11.37646484 C-28.63963024 0.63981782 -15.00298308 -0.01120002 0 0 Z " fill="#ffffff" transform="translate(491.977783203125,25.70947265625)"/>
</svg>
